# xmcd CD database file
#
# Track frame offsets:
#	150
#	11027
#	21704
#	35913
#	45156
#	58082
#	75306
#	83754
#	94233
#	105239
#	118882
#	126862
#	137928
#	157774
#	169192
#	184783
#	200051
#	213178
#	224099
#
# Disc length: 3194 seconds
#
# Revision: 0
# Processed by: cddbd v1.5.1PL2 Copyright (c) Steve Scherf et al.
# Submitted via: CDex 1.51
#
DISCID=0e0c7813
DTITLE=Trad Jazz Christmas - Jazzanda
DYEAR=2003
DGENRE=Jazz
TTITLE0=God Rest Ye Merry Gentlemen
TTITLE1=Santa Claus Is Coming To Town
TTITLE2=Ding Dong Merrily On High
TTITLE3=Winter Wonderland
TTITLE4=Good King Wenceslas
TTITLE5=It Came Upon A Midnight Clear
TTITLE6=Rudolph The Red Nosed Reindeer
TTITLE7=See Amid The Winter's Snow
TTITLE8=Deck The Halls
TTITLE9=Snowy White Snow
TTITLE10=Jolly Old St. Nick
TTITLE11=Let It Snow
TTITLE12=C-Jam Blues
TTITLE13=I Saw Mummy Kissing Santa Claus
TTITLE14=Rockin' Around the Christmas Tree
TTITLE15=Jingle Bells
TTITLE16=Little Donkey
TTITLE17=Frosty the Snowman
TTITLE18=Have Yourself a Merry Little Christmas
EXTD=YEAR: 2003
EXTT0=
EXTT1=
EXTT2=
EXTT3=
EXTT4=
EXTT5=
EXTT6=
EXTT7=
EXTT8=
EXTT9=
EXTT10=
EXTT11=
EXTT12=
EXTT13=
EXTT14=
EXTT15=
EXTT16=
EXTT17=
EXTT18=
PLAYORDER=
